<svg width="1864" height="296" viewBox="0 0 1864 296" fill="none" xmlns="http://www.w3.org/2000/svg">
<path fill-rule="evenodd" clip-rule="evenodd" d="M167.692 291.41H0.41L96.586 51.79H0V3.7H167.282L71.516 243.32H167.692V291.41Z" fill="#962330"/>
<path fill-rule="evenodd" clip-rule="evenodd" d="M528.542 3.7L420.448 155.36V291.41H372.359V155.36L264.263 3.7H323.037L396.608 106.45L469.767 3.7H528.542Z" fill="#962330"/>
<path fill-rule="evenodd" clip-rule="evenodd" d="M811.708 147.55C811.708 32.47 692.105 50.55 692.105 50.55V244.55C692.105 244.55 811.708 260.99 811.708 147.55ZM692.105 3.7C761.976 3.7 860.206 19.73 860.206 147.55C860.206 270.44 763.619 291.41 692.105 291.41H644.016V3.7H692.105Z" fill="#1A1919"/>
<path fill-rule="evenodd" clip-rule="evenodd" d="M989.249 291.41H1181.19V243.32H989.249V291.41ZM989.249 171.39H1181.19V123.71H989.249V171.39ZM989.249 51.79H1181.19V3.7H989.249V51.79Z" fill="#1A1919"/>
<path fill-rule="evenodd" clip-rule="evenodd" d="M1474.63 243.32V291.41H1320.09V3.7H1368.18V243.32H1474.63Z" fill="#1A1919"/>
<path fill-rule="evenodd" clip-rule="evenodd" d="M1721.63 46.85C1597.51 46.85 1597.1 248.66 1721.63 248.66C1846.17 248.66 1846.17 46.85 1721.63 46.85ZM1721.63 295.11C1531.75 295.11 1532.16 0 1721.63 0C1910.29 0 1910.7 295.11 1721.63 295.11Z" fill="#1A1919"/>
</svg>
